HIERARCHY
ROOT root
{
	OFFSET 0.000000 0.000000 0.000000
	CHANNELS 6 Xposition Yposition Zposition Zrotation Yrotation Xrotation
	JOINT lhip
	{
		OFFSET 0.058581 -0.082280 -0.017664
		CHANNELS 3 Zrotation Yrotation Xrotation
		JOINT lknee
		{
			OFFSET 0.043451 -0.386469 0.008037
			CHANNELS 3 Zrotation Yrotation Xrotation
			JOINT lankle
			{
				OFFSET -0.014790 -0.426874 -0.037428
				CHANNELS 3 Zrotation Yrotation Xrotation
				JOINT ltoe
				{
					OFFSET 0.041054 -0.060286 0.122042
					CHANNELS 3 Zrotation Yrotation Xrotation
					End Site
					{
						OFFSET 0.000000 0.000000 0.000000
					}
				}
			}
		}
	}
	JOINT rhip
	{
		OFFSET -0.060310 -0.090513 -0.013543
		CHANNELS 3 Zrotation Yrotation Xrotation
		JOINT rknee
		{
			OFFSET -0.043257 -0.383688 -0.004843
			CHANNELS 3 Zrotation Yrotation Xrotation
			JOINT rankle
			{
				OFFSET 0.019056 -0.420046 -0.034562
				CHANNELS 3 Zrotation Yrotation Xrotation
				JOINT rtoe
				{
					OFFSET -0.034840 -0.062106 0.130323
					CHANNELS 3 Zrotation Yrotation Xrotation
					End Site
					{
						OFFSET 0.000000 0.000000 0.000000
					}
				}
			}
		}
	}
	JOINT lowerback
	{
		OFFSET 0.004439 0.124404 -0.038385
		CHANNELS 3 Zrotation Yrotation Xrotation
		JOINT upperback
		{
			OFFSET 0.004488 0.137956 0.026820
			CHANNELS 3 Zrotation Yrotation Xrotation
			JOINT chest
			{
				OFFSET -0.002265 0.056032 0.002855
				CHANNELS 3 Zrotation Yrotation Xrotation
				JOINT lowerneck
				{
					OFFSET -0.013390 0.211636 -0.033468
					CHANNELS 3 Zrotation Yrotation Xrotation
					JOINT upperneck
					{
						OFFSET 0.010113 0.088937 0.050410
						CHANNELS 3 Zrotation Yrotation Xrotation
						End Site
						{
							OFFSET 0.000000 0.000000 0.000000
						}
					}
				}
				JOINT lclavicle
				{
					OFFSET 0.071702 0.114000 -0.018898
					CHANNELS 3 Zrotation Yrotation Xrotation
					JOINT lshoulder
					{
						OFFSET 0.122921 0.045205 -0.019046
						CHANNELS 3 Zrotation Yrotation Xrotation
						JOINT lelbow
						{
							OFFSET 0.255332 -0.015649 -0.022946
							CHANNELS 3 Zrotation Yrotation Xrotation
							JOINT lwrist
							{
								OFFSET 0.265709 0.012698 -0.007375
								CHANNELS 3 Zrotation Yrotation Xrotation
								End Site
								{
									OFFSET 0.000000 0.000000 0.000000
								}
							}
						}
					}
				}
				JOINT rclavicle
				{
					OFFSET -0.082954 0.112472 -0.023707
					CHANNELS 3 Zrotation Yrotation Xrotation
					JOINT rshoulder
					{
						OFFSET -0.113228 0.046853 -0.008472
						CHANNELS 3 Zrotation Yrotation Xrotation
						JOINT relbow
						{
							OFFSET -0.260127 -0.014369 -0.031269
							CHANNELS 3 Zrotation Yrotation Xrotation
							JOINT rwrist
							{
								OFFSET -0.269108 0.006794 -0.006027
								CHANNELS 3 Zrotation Yrotation Xrotation
								End Site
								{
									OFFSET 0.000000 0.000000 0.000000
								}
							}
						}
					}
				}
			}
		}
	}
}
MOTION
Frames: 11
Frame Time: 0.033333
0.030767 0.539949 1.231920 90.769309 1.451406 93.260799 0.220223 -2.200589 -5.464042 -10.613302 -6.084825 37.636844 -13.532622 2.670917 23.677793 0.000000 -0.000000 0.000000 -3.226743 0.047441 -10.784375 -0.369022 -0.980457 40.023695 9.665007 -1.828237 31.156699 0.000000 -0.000000 0.000000 2.379490 -2.276306 10.764204 1.710868 -0.698223 -2.568378 0.939757 -1.053020 0.396331 -4.113848 -1.538746 3.285486 3.608427 12.047673 -2.851534 -23.626752 10.252380 8.259177 -59.100244 12.578245 9.121983 0.667167 -48.815472 9.080950 13.697397 -13.962922 -26.297302 15.775780 -5.015349 4.623935 56.943744 -9.331482 12.130853 3.532110 43.438596 3.356325 -1.902119 9.215650 -26.923681 
0.087110 0.540500 1.252032 91.008351 1.344309 92.273135 0.251384 -3.078541 -8.173185 -8.911108 -3.570279 33.084014 -11.245155 4.085100 18.805060 0.000000 -0.000000 0.000000 -3.684885 0.814842 -13.948280 -0.389592 -2.446451 36.536129 9.174836 -2.406782 26.308538 0.000000 -0.000000 0.000000 2.003048 -2.176063 12.874023 1.967482 -0.806368 -3.633486 1.249692 -1.144439 0.500226 -4.118011 -0.606706 4.246930 3.342872 11.174442 -2.864824 -23.966514 8.852487 8.337316 -59.337541 9.782137 10.529919 0.660960 -44.860549 7.527430 14.957149 -13.988514 -27.384136 16.803014 -4.355902 4.147407 57.735892 -6.637413 12.719628 1.485732 38.558928 -1.426240 -7.411646 7.631290 -27.227013 
0.142801 0.540019 1.260646 91.234060 1.415943 91.124241 0.476531 -3.590632 -10.627492 -7.211819 -2.433054 27.677244 -9.775764 5.369440 15.654641 0.000000 -0.000000 0.000000 -3.987572 1.275771 -17.159540 -0.458042 -3.358778 32.940014 9.330268 -2.782390 23.828202 0.000000 -0.000000 0.000000 1.822390 -2.277081 15.260975 1.997025 -0.928324 -4.205847 1.550442 -1.101904 0.532051 -4.014735 0.201934 3.836124 3.348861 10.283952 -2.363049 -23.800785 7.241475 8.281505 -59.534386 8.058229 11.523619 0.723398 -42.914505 8.818755 14.146170 -14.833625 -25.549696 17.204789 -3.061051 4.119398 58.425830 -4.738931 13.068887 0.492313 35.956050 -2.675749 -8.177819 7.465638 -26.353731 
0.213182 0.540156 1.252900 91.291199 1.570325 89.655667 0.763605 -3.343668 -13.423172 -5.072116 -2.212746 20.230666 -8.732605 5.807225 13.573710 0.000000 -0.000000 0.000000 -4.386969 1.015998 -21.168417 -0.715069 -4.197625 28.422945 10.259948 -3.075317 22.512767 0.000000 -0.000000 0.000000 2.051904 -2.406209 18.094895 1.546549 -0.781156 -4.801943 1.628526 -1.055494 0.903286 -3.868783 0.880690 2.710753 3.686771 9.204806 -1.421497 -23.146469 5.751904 8.186782 -59.232115 6.853408 12.262059 0.224100 -42.640215 12.161995 12.527066 -15.918162 -21.389876 16.862464 -1.527946 4.474314 59.134164 -3.441802 13.496177 0.765096 35.880859 -1.767064 -6.902228 8.175703 -25.920712 
0.271075 0.540223 1.232658 91.019049 1.620917 88.720912 1.091709 -2.854904 -15.499008 -3.787403 -2.456285 13.805719 -8.320414 5.560462 13.649521 0.000000 -0.000000 0.000000 -4.680971 0.399440 -24.333192 -0.745648 -4.807508 24.532888 10.640539 -2.936285 21.726574 0.000000 -0.000000 0.000000 2.212384 -2.367712 19.700792 1.049241 -0.483667 -5.302469 1.635218 -0.939779 1.227116 -4.127854 1.258287 2.621764 4.183280 8.451385 -1.337288 -22.497981 5.521877 8.049468 -58.744897 6.362457 12.582337 -0.748624 -43.307946 13.678488 12.214078 -16.260091 -20.205287 16.075164 -1.170355 4.976707 59.507684 -3.116755 14.127799 2.019430 37.984429 0.745297 -7.833430 8.444765 -25.244936 
0.331604 0.539191 1.200940 90.642070 1.765382 87.752877 1.760770 -2.083739 -17.295430 -2.850799 -2.680903 7.699907 -9.683673 4.759487 16.096720 0.000000 -0.000000 0.000000 -4.502183 -0.398250 -26.657328 -0.797275 -5.683238 19.923557 10.365295 -2.842794 21.768598 0.000000 -0.000000 0.000000 2.316388 -2.204865 20.438721 0.642409 -0.265836 -5.294637 1.664463 -0.697335 1.320006 -4.896443 1.314245 3.618479 5.055083 8.073263 -1.965912 -22.038245 5.796726 8.136495 -58.345374 6.268043 12.555192 -1.394997 -44.468096 13.006411 12.848323 -16.092211 -21.968003 15.373993 -1.238001 5.986071 59.545347 -3.303852 14.559566 3.151371 41.633376 3.634356 -8.677775 8.582145 -24.230864 
0.395909 0.536450 1.158037 90.395296 2.087099 86.172937 2.882244 -1.505709 -18.597034 -2.389385 -3.312834 4.013467 -11.554130 3.780432 19.575731 0.000000 -0.000000 0.000000 -3.945702 -0.955160 -27.138085 -0.591017 -6.657379 14.898191 9.862470 -2.971167 23.754615 0.000000 -0.000000 0.000000 2.244834 -1.914000 20.514822 0.420352 -0.241573 -4.592281 1.763687 -0.491959 1.388888 -5.690696 1.046791 5.620792 6.037398 8.195844 -2.923276 -21.690992 6.192787 8.541205 -58.279804 6.382960 12.252680 -1.337930 -45.682900 11.463322 14.137864 -15.606455 -24.606423 14.777597 -1.341311 7.122134 59.515383 -3.573831 14.644612 4.131297 45.254953 6.301172 -8.095723 8.909750 -23.969048 
0.463226 0.532282 1.104049 90.215081 2.200603 83.763433 4.152274 -1.590138 -20.266685 -2.636996 -3.220883 6.664480 -11.683113 4.187450 21.664461 0.000000 -0.000000 0.000000 -3.483000 -1.269617 -26.748437 -0.138653 -6.571744 13.426959 9.727542 -2.988979 27.629676 0.000000 -0.000000 0.000000 1.511786 -1.307304 20.280702 0.421389 -0.379335 -3.676269 1.866888 -0.420241 1.805014 -6.125273 0.486266 8.165338 6.846807 8.669945 -3.637332 -21.275647 6.732759 8.826897 -58.331250 6.618246 11.678198 -1.272285 -46.439356 10.979376 15.150651 -15.063035 -25.447217 14.211980 -1.497960 7.774198 59.779324 -3.655541 14.699899 5.390075 47.503391 8.613264 -7.120666 9.134144 -24.615614 
0.532073 0.527903 1.039566 89.986433 1.953686 80.292407 5.051415 -2.059344 -22.059447 -4.182120 -3.532096 16.331788 -9.789383 5.186633 21.637515 0.000000 -0.000000 0.000000 -3.267626 -1.660467 -27.107091 0.343761 -5.882772 20.483567 8.968740 -2.479537 28.469286 0.000000 -0.000000 0.000000 0.199017 -0.571176 20.711709 0.564618 -0.366226 -3.368448 1.835828 -0.459399 2.475191 -5.996391 0.077732 10.458412 7.134475 8.958417 -3.614729 -20.785561 7.375108 8.632398 -58.214614 7.307945 10.977164 -1.685806 -46.700356 12.245370 15.304345 -14.371486 -24.826694 13.757060 -1.581276 7.569551 60.265392 -4.001915 14.724952 7.003798 48.130844 11.097046 -6.318248 9.176604 -25.546626 
0.601453 0.523995 0.966075 89.553667 2.005928 75.206728 5.433116 -1.328436 -23.839043 -9.359196 -6.060025 35.032870 -1.899177 4.071131 6.375747 0.000000 -0.000000 0.000000 -2.718012 -1.215601 -27.346536 1.906380 -3.452726 37.108640 2.691309 -1.985468 9.713543 0.000000 -0.000000 0.000000 -0.505608 -0.327280 23.433998 0.546251 0.084113 -5.021773 1.391108 -0.357965 4.173263 -4.511322 0.448326 10.275060 6.173876 7.999336 -1.414069 -20.491681 7.390287 7.889268 -57.830383 8.782242 9.224161 -2.978824 -46.890279 15.474188 15.605211 -13.252140 -25.739012 13.994813 -0.936891 6.355605 60.680465 -5.025156 13.538340 8.180795 47.478844 14.043761 -4.319206 9.354672 -25.769148 
0.661157 0.521913 0.895878 89.159946 2.384521 71.080774 6.207998 -1.424544 -27.209213 -13.095838 -2.867951 55.746518 4.125331 7.019599 -10.907531 0.000000 -0.000000 0.000000 -2.131493 1.878689 -28.837331 2.338237 -3.608837 55.491345 -3.042701 -6.474018 -10.084984 0.000000 -0.000000 0.000000 -0.697907 -0.863844 25.916620 0.903795 0.975126 -4.971594 0.147295 -0.227769 5.484190 -1.354918 2.384364 4.279088 3.730868 5.087543 4.899544 -22.932058 6.993777 5.917436 -55.894347 7.675814 8.345062 -0.756225 -43.565305 12.260044 14.236140 -14.295636 -26.058799 17.943611 -0.466214 3.979886 58.932115 -3.606274 14.197089 4.301741 43.644424 10.254726 -1.976777 10.388747 -24.636175 
